<?xml version="1.0" encoding="UTF-8" standalone="no"?>
<!-- Created with Inkscape (http://www.inkscape.org/) -->

<svg
   width="202.6068mm"
   height="19.07444mm"
   viewBox="0 0 202.6068 19.07444"
   version="1.1"
   id="svg5"
   sodipodi:docname="logo.svg"
   inkscape:version="1.1.2 (0a00cf5339, 2022-02-04)"
   xmlns:inkscape="http://www.inkscape.org/namespaces/inkscape"
   xmlns:sodipodi="http://sodipodi.sourceforge.net/DTD/sodipodi-0.dtd"
   xmlns="http://www.w3.org/2000/svg"
   xmlns:svg="http://www.w3.org/2000/svg">
  <sodipodi:namedview
     id="namedview23"
     pagecolor="#ffffff"
     bordercolor="#666666"
     borderopacity="1.0"
     inkscape:pageshadow="2"
     inkscape:pageopacity="0.0"
     inkscape:pagecheckerboard="0"
     inkscape:document-units="mm"
     showgrid="false"
     inkscape:zoom="1.2871459"
     inkscape:cx="419.92131"
     inkscape:cy="180.6322"
     inkscape:window-width="1920"
     inkscape:window-height="1044"
     inkscape:window-x="0"
     inkscape:window-y="0"
     inkscape:window-maximized="1"
     inkscape:current-layer="layer1" />
  <defs
     id="defs2">
    <rect
       x="111.86322"
       y="204.0209"
       width="599.23303"
       height="480.67633"
       id="rect2960" />
    <rect
       x="111.86322"
       y="204.0209"
       width="599.23303"
       height="480.67633"
       id="rect18566" />
    <rect
       x="111.86322"
       y="204.0209"
       width="599.23303"
       height="480.67633"
       id="rect25964" />
    <rect
       x="111.86322"
       y="204.0209"
       width="599.23303"
       height="480.67633"
       id="rect25970" />
  </defs>
  <g
     id="layer1"
     transform="translate(-3.4275229,-59.902163)">
    <g
       id="g30504"
       style="fill:#ff6600"
       transform="translate(10.583333)">
      <path
         d="m 40.596489,72.8859 q 0,0.616241 0.313933,0.953428 0.325562,0.337191 1.209228,0.383699 l 0.02326,0.744141 q -2.209168,0.290679 -3.348633,0.953428 h -0.813903 l 0.06976,-1.127836 q -1.685943,1.069702 -3.069579,1.069702 -1.883606,0 -2.604492,-0.895294 -0.709258,-0.906923 -0.709258,-2.383576 v -5.336884 q 0,-0.569732 -0.139528,-0.837157 -0.139525,-0.279054 -0.546478,-0.302308 l -0.744141,-0.04651 -0.06976,-0.04651 V 65.29334 l 0.116271,-0.04651 q 1.883609,0.04651 2.651004,0.04651 l 1.383636,-0.04651 q -0.02326,1.0697 -0.03488,1.953369 v 5.046202 q 0,1.33713 0.395325,1.883606 0.395324,0.546478 0.895294,0.546478 1.383636,0 2.40683,-0.883666 v -6.546112 q 0,-1.139465 -0.66275,-1.139465 l -0.74414,-0.04651 -0.09302,-0.04651 V 65.29334 l 0.09302,-0.04651 q 1.999877,0.04651 2.639372,0.04651 L 40.643,65.24683 q -0.04651,0.999937 -0.04651,1.953369 z"
         style="font-weight:600;font-size:90px;line-height:1.25;font-family:'Linux Libertine';-inkscape-font-specification:'Linux Libertine Semi-Bold';letter-spacing:-5px;word-spacing:0px;white-space:pre;fill:#ff6600;stroke-width:0.264583"
         id="path30467" />
      <path
         d="m 42.250135,72.153385 0.953428,-0.04651 q 0.337191,1.592927 0.918549,2.220796 0.581361,0.616241 1.883606,0.616241 0.546478,0 0.976685,-0.395324 0.430207,-0.395325 0.430207,-1.162722 0,-0.732512 -0.313936,-1.127837 -0.302307,-0.395324 -1.255736,-0.720886 -1.185974,-0.430207 -2.24405,-1.360382 -1.046448,-0.930177 -1.046448,-2.185913 0,-1.232482 1.046448,-2.081268 1.058076,-0.848786 2.674255,-0.848786 1.685946,0 3.046327,0.662749 0.16278,1.185977 0.267425,2.430084 l -0.930177,0.116274 q -0.337187,-1.20923 -0.90692,-1.709198 -0.569733,-0.499969 -1.40689,-0.499969 -0.546478,0 -0.941803,0.348816 -0.395324,0.337187 -0.395324,0.999937 0,1.267365 1.313873,1.74408 1.744077,0.639495 2.744017,1.49991 0.99994,0.860412 0.99994,2.139402 0,1.546418 -1.255739,2.313813 -1.255736,0.755769 -2.871917,0.755769 -0.546478,0 -1.651061,-0.151154 -1.104585,-0.151153 -1.755709,-0.127899 0.01162,-1.313873 -0.27905,-3.430023 z"
         style="font-weight:600;font-size:90px;line-height:1.25;font-family:'Linux Libertine';-inkscape-font-specification:'Linux Libertine Semi-Bold';letter-spacing:-5px;word-spacing:0px;white-space:pre;fill:#ff6600;stroke-width:0.264583"
         id="path30469" />
      <path
         d="m 60.728333,73.79282 c 0,0.317811 0.09302,0.550355 0.279053,0.697632 0.186035,0.139527 0.484467,0.248048 0.895295,0.325562 l 0.255799,0.04651 c 0.124023,0.01551 0.18991,0.08915 0.197662,0.220917 v 0.546478 l -0.04651,0.04651 c -1.333253,-0.03101 -2.309938,-0.04651 -2.930054,-0.04651 l -2.720766,0.04651 -0.04651,-0.04651 v -0.546478 c 0,-0.124023 0.06589,-0.197662 0.197662,-0.220917 l 0.162783,-0.04651 c 0.286803,-0.07751 0.496091,-0.147278 0.627866,-0.209291 0.139527,-0.06201 0.259676,-0.158906 0.360445,-0.290679 0.100769,-0.139527 0.151154,-0.313935 0.151154,-0.523224 v -5.18573 c 0,-0.922424 -0.08139,-1.530914 -0.244171,-1.825469 -0.15503,-0.294555 -0.468964,-0.441833 -0.941803,-0.441833 -0.255799,0 -0.643372,0.104644 -1.162719,0.313933 -0.511599,0.209289 -1.023196,0.496093 -1.534793,0.860412 v 6.278687 c 0,0.302307 0.08139,0.519349 0.244174,0.651124 0.170531,0.124022 0.480589,0.248045 0.930174,0.37207 l 0.162783,0.04651 c 0.124022,0.01551 0.186033,0.08915 0.186033,0.220917 v 0.546478 l -0.04651,0.04651 c -1.27124,-0.03101 -2.213043,-0.04651 -2.825409,-0.04651 l -2.837037,0.04651 -0.04651,-0.04651 v -0.546478 c 0,-0.124023 0.06201,-0.197662 0.186036,-0.220917 l 0.290679,-0.04651 c 0.395325,-0.06201 0.682129,-0.166659 0.860412,-0.313936 0.186035,-0.155028 0.279053,-0.391447 0.279053,-0.709258 v -9.981562 c 0,-0.728636 -0.05426,-1.201475 -0.162782,-1.418516 -0.100767,-0.217041 -0.282927,-0.325562 -0.546478,-0.325562 l -0.767395,-0.04651 c -0.09302,0 -0.139525,-0.03876 -0.139525,-0.116273 l -0.06976,-0.686004 c 0.589111,-0.04651 1.333251,-0.131773 2.232422,-0.255799 0.906921,-0.131775 1.496032,-0.255798 1.767334,-0.37207 0.255798,0 0.383697,0.08139 0.383697,0.24417 -0.04651,0.635621 -0.07364,1.468905 -0.08139,2.49985 v 3.226159 c 0.635621,-0.47284 1.294497,-0.84491 1.976626,-1.11621 0.682127,-0.271302 1.255735,-0.406953 1.720823,-0.406953 0.99994,0 1.716951,0.31781 2.151034,0.953431 0.434081,0.627869 0.651121,1.585174 0.651121,2.871917 z"
         style="font-weight:600;font-size:90px;line-height:1.25;font-family:'Linux Libertine';-inkscape-font-specification:'Linux Libertine Semi-Bold';letter-spacing:-5px;word-spacing:0px;white-space:pre;fill:#ff6600;stroke-width:0.264583"
         id="path30471" />
      <path
         d="m 21.635115,62.900661 v 5.089408 h 1.325499 q 1.360382,0 2.174288,-0.761407 0.825529,-0.774766 0.825529,-2.324298 0,-0.961778 -0.255797,-1.629681 -0.24417,-0.681259 -0.674377,-0.988493 -0.418579,-0.320593 -0.837158,-0.440813 -0.418579,-0.120223 -0.895294,-0.120223 -1.069703,0 -1.37201,0.267159 -0.29068,0.253805 -0.29068,0.908348 z m 0,6.2382 v 6.839311 q 0,0.654543 0.279054,0.935061 0.290679,0.267159 1.290616,0.267159 1.116211,0 1.918488,-0.374022 0.813904,-0.387385 1.209228,-1.028569 0.395325,-0.654543 0.569733,-1.29573 0.186036,-0.641184 0.186036,-1.322443 0,-1.803335 -0.988311,-2.912051 -0.988311,-1.108716 -2.7789,-1.108716 z m -4.743897,8.562495 q 0,-0.33395 0.430207,-0.33395 h 0.686004 q 0.406953,0 0.558107,-0.227086 0.16278,-0.227087 0.16278,-0.89499 V 62.6335 q 0,-0.627828 -0.151154,-0.868274 -0.139526,-0.253802 -0.569733,-0.253802 h -0.779023 q -0.337188,0 -0.337188,-0.280518 v -0.601112 l 0.04651,-0.05343 q 2.395204,0.05343 3.11609,0.05343 0.302305,0 1.360382,-0.02672 1.058074,-0.02672 1.720823,-0.02672 5.6857,0 5.6857,4.261213 0,1.041925 -0.662749,2.057134 -0.651124,1.015213 -1.627809,1.509458 v 0.05343 q 3.569551,1.095357 3.581177,5.009261 0,2.057137 -1.534789,3.433012 -1.53479,1.375878 -4.918306,1.375878 h -6.743774 l -0.02326,-0.02672 z"
         style="font-weight:600;font-size:90px;line-height:1.25;font-family:'Linux Libertine';-inkscape-font-specification:'Linux Libertine Semi-Bold';letter-spacing:-5px;word-spacing:0px;white-space:pre;fill:#ff6600;stroke-width:0.283593"
         id="path30457" />
    </g>
    <g
       id="g30971"
       style="fill:#ff6600"
       transform="translate(10.583333)">
      <path
         id="path30608"
         style="color:#000000;-inkscape-font-specification:'Linux Libertine Semi-Bold';fill:#ff6600;stroke-width:3.77953;-inkscape-stroke:none;paint-order:markers stroke fill"
         d="m 315.87891,242.98828 -0.38477,0.002 -0.36914,0.10938 c -2.41143,0.7183 -7.43446,1.63208 -14.70508,2.5918 l -2.43554,0.32421 0.44335,7.79688 5.35157,0.50781 c -0.0767,-0.0438 0.18554,0.87378 0.18554,2.65039 v 21.93164 c 0,0.56794 -0.0476,0.49991 -0.0976,0.53125 -0.18463,0.13769 -0.88233,0.49615 -2.11719,0.73829 h -0.008 l -0.90039,0.18554 h -0.0156 c -0.67618,0.14491 -1.5138,0.58083 -2.03711,1.29102 -0.5233,0.71019 -0.67187,1.5126 -0.67187,2.13281 v 3.16016 l 1.74219,1.74218 11.49414,-0.1914 c 2.29965,0 5.864,0.0589 10.6582,0.17578 l 1.13867,0.0234 1.74805,-1.75 v -3.16016 c 0,-0.69007 -0.23778,-1.5802 -0.79688,-2.24414 -0.55911,-0.66394 -1.30029,-1.00525 -1.91211,-1.1582 l -0.0137,-0.008 -0.77539,-0.17578 -0.008,-0.008 c -0.91667,-0.20954 -1.56736,-0.43024 -1.83008,-0.55469 -0.14933,-0.0708 -0.24828,-0.16635 -0.35547,-0.28711 -0.0223,-0.037 -0.0664,-0.0969 -0.0664,-0.44336 v -18.98632 c 0,-2.66453 0.61493,-3.70616 1.19532,-4.11133 l 0.0156,-0.008 0.008,-0.008 c 0.54166,-0.38487 0.96533,-0.56739 1.32226,-0.64453 0.034,0.0276 0.0704,0.0587 0.10938,0.0977 l 0.0449,0.0449 0.043,0.0371 c 0.73163,0.66513 1.55144,1.3313 2.46679,1.99414 l 0.0293,0.0137 0.0215,0.0156 c 1.25911,0.86835 2.78903,1.34961 4.31836,1.34961 1.99154,0 3.99834,-0.91546 5.27149,-2.44922 1.24673,-1.47124 1.89648,-3.38844 1.89648,-5.33789 0,-1.93095 -0.83112,-3.80911 -2.16211,-5.22657 -1.44326,-1.56359 -3.56917,-2.42773 -5.71289,-2.42773 -3.12607,0 -6.06267,1.27575 -8.88086,3.07812 l 0.0137,-0.39257 v -0.043 c 0,-1.1168 -1.06635,-2.33342 -1.75585,-2.62891 -0.6895,-0.29548 -1.11182,-0.28125 -1.50586,-0.28125 z m 0.002,2.64649 c 0.41015,0 0.61523,0.0879 0.61523,0.26367 l -0.17578,5.66992 h 0.17578 c 3.66212,-3.7793 7.5,-5.66992 11.51368,-5.66992 1.55273,0 2.8125,0.52734 3.77929,1.58203 0.9668,1.02539 1.45117,2.16797 1.45117,3.42773 0,1.43555 -0.42577,2.65235 -1.27539,3.64844 -0.82031,0.9961 -1.9043,1.49414 -3.25195,1.49414 -1.02539,0 -1.96289,-0.29296 -2.8125,-0.8789 -0.84961,-0.61524 -1.5957,-1.2168 -2.24023,-1.80274 -0.61524,-0.61523 -1.1289,-0.92187 -1.53907,-0.92187 -1.08397,0 -2.18164,0.39452 -3.29492,1.18554 -1.55274,1.08398 -2.33008,3.17968 -2.33008,6.28516 v 18.98437 c 0,0.79102 0.17578,1.44922 0.52735,1.97657 0.38086,0.49804 0.84961,0.8789 1.40625,1.14257 0.55664,0.26368 1.34766,0.51368 2.37304,0.74805 l 0.74805,0.17578 c 0.46876,0.11719 0.70313,0.39454 0.70313,0.83399 v 2.0664 l -0.17579,0.17578 c -4.80468,-0.11719 -8.3789,-0.17578 -10.72265,-0.17578 l -10.41602,0.17578 -0.17578,-0.17578 v -2.0664 c 0,-0.46875 0.20508,-0.74609 0.61524,-0.83399 l 0.8789,-0.17578 c 1.49414,-0.29297 2.5918,-0.71874 3.29492,-1.27539 0.70313,-0.58593 1.05469,-1.44922 1.05469,-2.5918 v -21.92968 c 0,-2.10938 -0.16015,-3.48633 -0.48242,-4.13086 -0.29297,-0.67383 -0.79101,-1.03907 -1.49414,-1.09766 l -3.69141,-0.35156 -0.17578,-3.07617 c 7.32422,-0.9668 12.36328,-1.86133 15.11719,-2.68164 z m 5.58203,9.38085 c -0.008,-0.006 0.0157,0.003 0.0547,0.0215 -0.0308,-0.009 -0.0494,-0.0178 -0.0547,-0.0215 z"
         transform="scale(0.26458333)" />
      <path
         id="path30614"
         style="color:#000000;-inkscape-font-specification:'Linux Libertine Semi-Bold';fill:#ff6600;stroke-width:3.77953;-inkscape-stroke:none;paint-order:markers stroke fill"
         d="m 355.66602,243.86133 -7.93555,0.27344 c -1.88014,0 -5.21981,-0.0608 -9.95703,-0.17774 l -0.53906,-0.0156 -2.60547,1.04882 v 5.92774 l 2.02929,1.35742 3.43946,0.21484 c 0.0451,0.16638 0.19922,0.61978 0.19922,1.66797 V 274.334 c 0,4.14428 1.02584,7.8027 3.24218,10.63672 l 0.008,0.0137 0.0137,0.0156 c 2.52234,3.13259 6.74099,4.36914 11.90625,4.36914 2.80657,0 5.71159,-0.94935 8.67382,-2.29492 l -0.15429,2.51758 h 6.60742 l 0.61133,-0.36133 c 2.37406,-1.38084 6.31279,-2.5575 11.67969,-3.26367 l 2.36914,-0.31641 -0.23633,-7.63281 -2.42969,-0.13281 c -1.89305,-0.0996 -2.73639,-0.59455 -2.78125,-0.63477 -0.23887,-0.26279 -0.47266,-0.68798 -0.47266,-1.77344 v -21.49609 c 0,-2.35933 0.0605,-4.77532 0.17579,-7.25586 l 0.13476,-2.85742 -8.17969,0.26758 c -1.54718,0 -4.88155,-0.0607 -9.91406,-0.17774 l -0.65625,-0.0156 -2.4082,1.20312 v 5.99414 l 2.29687,1.14453 3.13672,0.19922 c 0.065,0.17333 0.23633,0.63421 0.23633,1.67578 v 23.07618 c -1.91219,1.3999 -3.89092,2.36132 -6.45117,2.36132 -0.29583,0 -0.55458,-0.0247 -1.24024,-0.97265 -0.39547,-0.54669 -0.99023,-2.458 -0.99023,-5.56641 v -19.03906 -0.0371 c 0.0291,-2.20863 0.0746,-4.6467 0.13281,-7.32227 z m -17.95508,2.74023 c 4.74609,0.11719 8.08594,0.17578 10.01953,0.17578 l 5.23047,-0.17578 c -0.0586,2.69531 -0.10354,5.15625 -0.13282,7.38282 v 19.07226 c 0,3.36915 0.49805,5.74219 1.49415,7.11914 0.99609,1.37696 2.125,2.06641 3.38476,2.06641 3.48633,0 6.51758,-1.11329 9.0957,-3.33985 v -24.74218 c 0,-2.8711 -0.83398,-4.30664 -2.5039,-4.30664 l -2.8125,-0.17579 -0.35156,-0.17578 v -2.72461 l 0.35156,-0.17578 c 5.03906,0.11719 8.36328,0.17578 9.97461,0.17578 l 5.40625,-0.17578 c -0.11719,2.51953 -0.17578,4.98047 -0.17578,7.38282 v 21.49023 c 0,1.55273 0.39453,2.75391 1.18554,3.60351 0.82032,0.84962 2.34375,1.33204 4.57032,1.44922 l 0.0879,2.8125 c -5.56642,0.73243 -9.78516,1.9336 -12.65625,3.60352 h -3.07618 l 0.26368,-4.26172 c -4.24805,2.69532 -8.11523,4.04297 -11.60157,4.04297 -4.74609,0 -8.02734,-1.1289 -9.84375,-3.38477 -1.7871,-2.28516 -2.67968,-5.28711 -2.67968,-9.00781 v -20.17187 c 0,-1.43555 -0.17579,-2.49024 -0.52735,-3.16407 -0.35156,-0.70312 -1.04102,-1.08398 -2.0664,-1.14257 l -2.8125,-0.17579 -0.26368,-0.17578 v -2.72461 z"
         transform="scale(0.26458333)" />
      <path
         id="path30620"
         style="color:#000000;-inkscape-font-specification:'Linux Libertine Semi-Bold';fill:#ff6600;stroke-width:3.77953;-inkscape-stroke:none;paint-order:markers stroke fill"
         d="m 399.23438,242.99023 -0.36915,0.10938 c -2.41141,0.7183 -7.44033,1.63208 -14.71093,2.5918 l -2.4375,0.32421 0.45117,7.79688 5.35156,0.50781 c -0.0767,-0.0437 0.17774,0.87381 0.17774,2.65039 v 22.10938 c 0,0.21774 -0.004,0.32659 -0.006,0.39648 -0.27226,0.12806 -1.04166,0.44474 -2.26172,0.71094 h -0.008 l -0.9004,0.19922 -0.10937,0.0371 c -0.56984,0.17809 -1.22815,0.50777 -1.75781,1.13672 -0.52967,0.62895 -0.79688,1.51167 -0.79688,2.2207 v 3.16016 l 1.74219,1.74218 11.49414,-0.1914 c 2.38911,0 5.73816,0.059 10.03125,0.17578 l 1.13672,0.0312 0.53906,-0.53906 0.53125,0.52343 10.78516,-0.1914 c 2.32951,0 5.6577,0.0589 9.95117,0.17578 l 1.13672,0.0312 0.64844,-0.65039 0.63476,0.63476 10.70508,-0.1914 c 2.29965,0 5.88717,0.0588 10.74023,0.17578 l 1.13672,0.0234 1.75,-1.75 v -3.24805 l -0.008,-0.0879 c -0.0453,-0.67917 -0.3194,-1.51057 -0.87109,-2.12695 -0.55155,-0.61639 -1.26167,-0.94823 -1.86719,-1.09961 l -0.69531,-0.17774 c -1.32638,-0.33763 -2.1309,-0.70229 -2.39844,-0.85351 0.003,-0.0396 0,-0.10939 0,-0.35547 v -18.41797 c 0,-2.40853 -0.11541,-4.41226 -0.37695,-6.10547 -7.2e-4,-0.005 -0.008,-0.0103 -0.008,-0.0156 -0.24,-1.7714 -0.74636,-3.51797 -1.50586,-5.21093 l -0.006,-0.008 c -0.8657,-2.00044 -2.41561,-3.63791 -4.36328,-4.59766 -1.9375,-0.98343 -4.20252,-1.38086 -6.76172,-1.38086 -4.6202,0 -9.08445,2.01557 -13.36132,5.16016 -2.27207,-3.03744 -5.51813,-5.16016 -9.75196,-5.16016 -3.41488,0 -6.73702,1.41332 -9.98828,3.41016 l 0.0234,-0.72266 v -0.0449 c 0,-1.1168 -1.06831,-2.33342 -1.75781,-2.62891 -0.6895,-0.29548 -1.11181,-0.2793 -1.50586,-0.2793 z m 0.38476,2.64454 c 0.41015,0 0.61523,0.0879 0.61524,0.26367 l -0.17579,5.66992 h 0.17579 c 4.24803,-3.7793 8.45117,-5.66992 12.61132,-5.66992 4.6875,0 7.77734,1.97851 9.27149,5.93359 4.5703,-3.95508 9.18553,-5.93359 13.84375,-5.93359 2.28515,0 4.14454,0.36718 5.58008,1.09961 1.43556,0.70312 2.47655,1.80078 3.12109,3.29492 0.67381,1.49414 1.11328,3.0039 1.31836,4.52734 0.23433,1.49414 0.35156,3.41211 0.35156,5.75586 v 18.41406 c 0,1.14258 0.32226,1.9629 0.9668,2.46094 0.67381,0.46875 1.81639,0.9082 3.42773,1.31836 l 0.70313,0.17578 c 0.46876,0.11719 0.71679,0.39454 0.74609,0.83399 v 2.0664 L 452,286.02148 c -4.86329,-0.11719 -8.46681,-0.17578 -10.81055,-0.17578 l -9.62304,0.17578 -0.17579,-0.17578 v -2.0664 c 0,-0.46875 0.23437,-0.74609 0.70313,-0.83399 2.87108,-0.23438 4.30664,-1.55274 4.30664,-3.95508 v -20.43554 c 0,-5.15625 -1.20117,-7.73438 -3.60351,-7.73438 -3.04688,0 -6.31252,1.48048 -9.79883,4.43946 0.11716,1.55273 0.17382,3.28124 0.17383,5.18554 v 18.54492 c 0,1.43555 0.38087,2.41602 1.14257,2.94336 0.79103,0.49805 1.89064,0.83594 3.29688,1.01172 0.46876,0 0.70312,0.27735 0.70312,0.83399 v 2.0664 l -0.17578,0.17578 c -4.30664,-0.11719 -7.64649,-0.17578 -10.01953,-0.17578 l -9.71094,0.17578 -0.17578,-0.17578 v -2.0664 c 0,-0.43946 0.27734,-0.7168 0.83399,-0.83399 2.81249,-0.23438 4.21875,-1.55274 4.21875,-3.95508 v -20.21484 c 0,-5.27344 -1.23046,-7.92578 -3.69141,-7.95508 -2.75391,0 -5.87306,1.45118 -9.35937,4.35157 v 23.90624 c 0,0.96681 0.23438,1.75782 0.70312,2.37305 0.49807,0.58594 0.9961,0.95118 1.49414,1.09766 0.52735,0.14649 1.23048,0.2793 2.10938,0.39648 0.52734,0.11719 0.80468,0.39454 0.83398,0.83399 v 2.0664 l -0.17578,0.17578 c -4.30665,-0.11719 -7.6758,-0.17578 -10.10742,-0.17578 l -10.41407,0.17578 -0.17578,-0.17578 v -2.0664 c 0,-0.41015 0.23437,-0.6875 0.70313,-0.83399 l 0.79101,-0.17578 c 1.61132,-0.35157 2.73828,-0.74804 3.38282,-1.1875 0.64453,-0.46874 0.96679,-1.30273 0.96679,-2.50391 v -22.10546 c 0,-2.10938 -0.16015,-3.48633 -0.48242,-4.13086 -0.29296,-0.67383 -0.791,-1.03907 -1.49414,-1.09766 l -3.69141,-0.35156 -0.17578,-3.07617 c 7.32422,-0.9668 12.36328,-1.86133 15.11719,-2.68164 z m 33.30664,7.77929 c 0.0119,-0.0199 -0.0186,0.0339 0.17774,0.45703 0.31559,0.67703 0.64843,2.31483 0.64843,4.6875 v 20.43164 c 0,0.67419 -0.0926,0.72415 -0.2207,0.8418 -0.12813,0.11766 -0.58405,0.38529 -1.6543,0.47266 l -0.13281,0.0156 -0.14062,0.0215 c -0.54558,0.10231 -1.17197,0.49181 -1.71875,0.98242 -0.59495,-0.5491 -1.3725,-0.92295 -2.00977,-1.00781 l 0.0684,0.004 c -1.067,-0.13336 -1.72763,-0.38241 -2.07422,-0.57422 -0.0161,-0.0669 -0.0527,-0.25975 -0.0527,-0.7539 v -18.54492 c 0,-1.32271 -0.0694,-2.46525 -0.125,-3.63868 2.70213,-2.04514 5.18502,-3.34375 7.10937,-3.34375 0.0955,0 0.11789,-0.0388 0.125,-0.0508 z m -23.20312,0.0195 c 0.0345,-0.006 0.0334,0.0704 0.23828,0.51172 0.33335,0.71815 0.67968,2.39523 0.67968,4.82617 v 20.22071 c 0,0.68494 -0.10435,0.74469 -0.22265,0.85547 -0.1183,0.11077 -0.53879,0.37092 -1.57227,0.45703 l -0.16211,0.0156 -0.16211,0.0371 c -0.5354,0.11271 -1.15436,0.40646 -1.72851,0.89258 -0.54769,-0.46463 -1.15122,-0.76689 -1.68164,-0.88477 L 405,280.33594 l -0.11133,-0.0156 c -0.78739,-0.10499 -1.37141,-0.21768 -1.71289,-0.31054 0.11301,0.0333 -0.0534,-0.0981 -0.13281,-0.16211 -0.0639,-0.0838 -0.16211,-0.22834 -0.16211,-0.76758 v -22.33789 c 2.68033,-1.99611 5.09038,-3.26452 6.6875,-3.26953 h 0.002 c 0.0994,-0.002 0.13166,-0.0353 0.15235,-0.0391 z"
         transform="scale(0.26458333)" />
      <path
         id="path30626"
         style="color:#000000;-inkscape-font-specification:'Linux Libertine Semi-Bold';fill:#ff6600;stroke-width:3.77953;-inkscape-stroke:none;paint-order:markers stroke fill"
         d="m 236.81055,226.40234 -1.61524,1.86133 v 3.36524 c 0,0.64733 0.10829,1.50646 0.77344,2.31836 0.66514,0.81189 1.80356,1.18164 2.57617,1.18164 h 1.27149 c 1.47323,0 2.03834,0.36848 1.98437,0.3164 l 0.0449,0.0449 0.0449,0.0371 c -0.0417,-0.0367 0.25001,0.25612 0.25,1.49805 v 50.8457 c 0,1.21311 -0.26545,1.53438 -0.2871,1.5586 -0.0147,0.006 -0.60822,0.33984 -2.03711,0.33984 h -1.36719 l -0.0957,0.006 c -0.79991,0.0574 -1.88445,0.53543 -2.47266,1.33789 -0.58821,0.80247 -0.68555,1.61372 -0.68555,2.25781 v 3.26368 l 1.61524,1.85937 h 1.20312 28.25781 c 3.06413,0 6.03605,-0.28904 8.91016,-0.86328 h 0.0234 l 0.0137,-0.008 c 2.97822,-0.63225 5.95634,-1.76954 8.93164,-3.38867 3.03158,-1.64979 5.70856,-3.74355 7.98828,-6.25196 l 0.008,-0.008 0.008,-0.008 c 2.38197,-2.65948 4.21333,-6.07257 5.58789,-10.16407 1.3969,-4.15799 2.07422,-8.80267 2.07422,-13.91601 0,-10.23169 -3.45354,-19.21169 -10.20313,-26.4336 -6.72826,-7.26244 -15.24979,-11.05078 -24.96484,-11.05078 z m 1.20703,2.64844 h 26.63086 c 9.05273,0 16.72851,3.4003 23.02734,10.19922 6.32813,6.76526 9.49219,14.97686 9.49219,24.63672 0,4.88041 -0.64453,9.23916 -1.93359,13.07617 -1.28907,3.83702 -2.97462,6.91783 -5.05469,9.24023 -2.08008,2.28875 -4.51173,4.19047 -7.29492,5.70508 -2.78321,1.51461 -5.52149,2.55672 -8.2168,3.12891 -2.69532,0.53852 -5.49415,0.80859 -8.39453,0.80859 h -28.25586 l -0.17774,-0.20312 v -2.27149 c 0,-0.60584 0.23633,-0.92533 0.70508,-0.95898 h 1.27344 c 1.78711,0 3.06054,-0.3366 3.82226,-1.00977 0.76173,-0.70682 1.14454,-1.88396 1.14454,-3.5332 v -50.8418 c 0,-1.64924 -0.38281,-2.80925 -1.14454,-3.48242 -0.73241,-0.70682 -2.00585,-1.06054 -3.82226,-1.06054 h -1.27344 c -0.46875,0 -0.70508,-0.28719 -0.70508,-0.85938 v -2.37109 z m 23.33398,4.14063 c -1.93359,0 -3.35352,0.23582 -4.26172,0.70703 -0.8789,0.43755 -1.31836,1.41312 -1.31836,2.92773 v 51.24414 c 0,1.51461 0.43946,2.5073 1.31836,2.97852 0.9082,0.43754 3.07618,0.65625 6.50391,0.65625 3.10547,0 5.87305,-0.37086 8.30469,-1.11133 2.43164,-0.77413 4.70313,-2.05206 6.8125,-3.83594 2.10937,-1.78387 3.72069,-4.37593 4.83398,-7.77539 1.14257,-3.43312 1.71289,-7.60741 1.71289,-12.52148 0,-3.23117 -0.24805,-6.37657 -0.74609,-9.43946 -0.49805,-3.06287 -1.34961,-6.06003 -2.55078,-8.98828 -1.20117,-2.92824 -2.70899,-5.46893 -4.52539,-7.62304 -1.78712,-2.18778 -4.07227,-3.93734 -6.85547,-5.25 -2.75391,-1.31266 -5.83008,-1.96875 -9.22852,-1.96875 z m -0.004,2.64453 h 0.002 c 3.05698,2.5e-4 5.71802,0.58235 8.08984,1.71289 h 0.008 0.006 c 2.4679,1.16396 4.41013,2.66579 5.93555,4.5332 l 0.008,0.0215 0.0156,0.0156 c 1.62082,1.92217 2.99361,4.21025 4.10351,6.91602 1.12698,2.74737 1.91937,5.54607 2.38477,8.4082 0.47439,2.91741 0.71484,5.92625 0.71484,9.02148 0,4.70902 -0.55498,8.61129 -1.57812,11.68555 h -0.008 v 0.008 c -1.00208,3.05987 -2.37935,5.17918 -4.03125,6.57618 -1.86894,1.58055 -3.81806,2.67274 -5.89844,3.33593 -0.002,6.3e-4 -0.006,-6.2e-4 -0.008,0 -2.12457,0.64286 -4.61911,0.99024 -7.5,0.99024 -2.79036,0 -4.76365,-0.35508 -5.16797,-0.39258 -1.2e-4,-0.0728 -0.006,-0.19279 -0.006,-0.59766 v -51.24414 c 0,-0.40456 0.007,-0.55914 0.006,-0.63086 0.37502,-0.1335 1.40458,-0.35917 2.92383,-0.35937 z"
         transform="scale(0.26458333)" />
    </g>
    <rect
       style="fill:#ff6600;fill-opacity:1;stroke:none;stroke-width:0.417379;stroke-linecap:round;stroke-linejoin:round;stroke-miterlimit:4;stroke-dasharray:none;stroke-opacity:1;paint-order:markers stroke fill;stop-color:#000000"
       id="rect31032"
       width="21.903332"
       height="0.53923112"
       x="3.4275229"
       y="66.870781" />
    <rect
       style="fill:#ff6600;fill-opacity:1;stroke:none;stroke-width:0.417379;stroke-linecap:round;stroke-linejoin:round;stroke-miterlimit:4;stroke-dasharray:none;stroke-opacity:1;paint-order:markers stroke fill;stop-color:#000000"
       id="rect31136"
       width="21.903332"
       height="0.53923112"
       x="3.4275229"
       y="72.162445" />
    <rect
       style="fill:#ff6600;fill-opacity:1;stroke:none;stroke-width:0.760356;stroke-linecap:round;stroke-linejoin:round;stroke-miterlimit:4;stroke-dasharray:none;stroke-opacity:1;paint-order:markers stroke fill;stop-color:#000000"
       id="rect31138"
       width="72.691254"
       height="0.53923112"
       x="133.34293"
       y="66.870781" />
    <rect
       style="fill:#ff6600;fill-opacity:1;stroke:none;stroke-width:0.760356;stroke-linecap:round;stroke-linejoin:round;stroke-miterlimit:4;stroke-dasharray:none;stroke-opacity:1;paint-order:markers stroke fill;stop-color:#000000"
       id="rect31140"
       width="72.691399"
       height="0.53923112"
       x="133.34293"
       y="72.162445" />
  </g>
</svg>
